<?xml version="1.0" standalone="no"?>
<!DOCTYPE svg PUBLIC "-//W3C//DTD SVG 20010904//EN"
 "http://www.w3.org/TR/2001/REC-SVG-20010904/DTD/svg10.dtd">
<svg version="1.0" xmlns="http://www.w3.org/2000/svg"
 width="700.000000pt" height="700.000000pt" viewBox="0 0 700.000000 700.000000"
 preserveAspectRatio="xMidYMid meet">
<metadata>
Created by potrace 1.14, written by Peter Selinger 2001-2017
</metadata>
<g transform="translate(0.000000,700.000000) scale(0.100000,-0.100000)"
fill="#000000" stroke="none">
<path d="M4158 6355 c-2 -1 -34 -5 -73 -8 -330 -29 -715 -179 -990 -386 -191
-145 -360 -323 -488 -518 -125 -189 -242 -466 -282 -665 -26 -135 -34 -189
-41 -283 -37 -485 101 -970 385 -1352 83 -112 94 -125 201 -233 251 -253 568
-436 915 -529 l40 -10 -2 -472 c-1 -259 -4 -474 -8 -477 -4 -4 -649 -7 -1433
-8 l-1427 -1 -57 -22 c-75 -29 -150 -97 -185 -169 -27 -54 -28 -64 -28 -197 0
-135 1 -142 29 -194 36 -70 96 -127 166 -160 l55 -26 1685 -2 c1855 -2 1742
-6 1831 59 59 43 75 62 112 138 l32 65 -1 717 0 717 51 7 c27 4 52 8 55 9 3 1
21 5 40 9 138 31 318 96 461 166 90 45 236 132 276 164 10 8 53 42 95 75 155
124 307 292 420 466 136 208 253 499 292 725 3 19 8 46 11 60 20 96 27 412 12
549 -5 41 -10 77 -12 80 -1 4 -6 27 -9 53 -16 116 -92 357 -150 475 -14 29
-26 55 -26 57 0 18 -128 226 -194 316 -70 94 -217 250 -316 335 -150 129 -366
256 -576 338 -88 35 -281 90 -354 101 -19 3 -66 11 -105 17 -61 10 -398 21
-407 14z m227 -860 c270 -19 554 -157 742 -359 477 -512 406 -1312 -153 -1734
-120 -91 -337 -187 -469 -208 -22 -3 -44 -8 -48 -11 -20 -12 -268 -10 -347 2
-523 83 -917 484 -987 1005 -13 97 -6 279 16 382 18 86 71 246 91 273 4 6 22
37 40 70 104 194 310 383 517 476 37 17 77 35 88 40 50 23 222 59 307 65 51 4
95 8 96 10 2 1 9 1 15 -1 7 -2 48 -7 92 -10z"/>
</g>
</svg>
